<?xml version="1.0" encoding="utf-8"?>
<!-- Generator: Adobe Illustrator 25.4.1, SVG Export Plug-In . SVG Version: 6.00 Build 0)  -->
<svg version="1.1" id="Layer_1" xmlns="http://www.w3.org/2000/svg" xmlns:xlink="http://www.w3.org/1999/xlink" x="0px" y="0px"
	 viewBox="0 0 256 256" style="enable-background:new 0 0 256 256;" xml:space="preserve">
<style type="text/css">
	.st0{display:none;}
	.st1{fill:#FFC001;stroke:#FFC001;stroke-width:14;stroke-miterlimit:10;}
</style>
<path class="st0" d="M91.6,193.9c-2.8,0-5.3-1.2-7.1-3.1c-1.8,1.9-4.3,3.1-7.1,3.1c-5.4,0-9.7-4.4-9.7-9.7v-23
	c-5.4-1.4-11.5-5-14-9.6c-1.5-2.8-1.7-5.6-0.5-8.3l10.7-23.6c3.4-7.5,7.2-15.9,16.9-15.9h7.9c10,0,14,9.2,16.9,15.9l10.2,23.6
	c1.2,2.7,1,5.6-0.6,8.3c-2.6,4.5-8.6,8.1-13.9,9.5v23C101.3,189.6,96.9,193.9,91.6,193.9z M83.9,155.5H85c1.8,0,3.2,1.4,3.2,3.2
	v25.5c0,1.8,1.5,3.3,3.3,3.3s3.3-1.5,3.3-3.3v-25.6c0-1.6,1.2-3,2.8-3.2c4.1-0.5,10-3.4,12-6.8c0.7-1.3,0.5-2.1,0.3-2.6l-10.3-23.6
	c-3.2-7.3-5.6-12.1-11.1-12.1h-7.9c-5.4,0-7.7,4.6-11.1,12.1L58.9,146c-0.2,0.5-0.4,1.3,0.3,2.5c1.9,3.3,7.9,6.4,12,6.9
	c1.6,0.2,2.8,1.6,2.8,3.2v25.6c0,1.8,1.5,3.3,3.3,3.3s3.3-1.5,3.3-3.3v-25.5C80.7,156.9,82.2,155.5,83.9,155.5z M84.4,100
	c-10.4,0-18.9-8.5-18.9-18.9c0-10.5,8.5-19,18.9-19c10.5,0,19,8.5,19,19C103.4,91.5,94.9,100,84.4,100z M84.4,68.5
	c-6.9,0-12.5,5.6-12.5,12.6c0,6.9,5.6,12.5,12.5,12.5c7,0,12.6-5.6,12.6-12.5C97,74.1,91.4,68.5,84.4,68.5z M182.6,193.9
	c-2.8,0-5.3-1.2-7.1-3.1c-1.8,1.9-4.3,3.1-7.1,3.1c-5.4,0-9.7-4.4-9.7-9.7v-33.5c-0.3-0.3-0.6-0.6-0.9-0.9c-1.2-1.2-2.6-2.5-3.1-4.3
	l-6.9-23.5c-1.1-3.6-0.3-7.5,2.2-10.8c3.3-4.4,9.3-7.3,14.9-7.3h21.2c5.6,0,11.4,2.8,14.7,7.2c2.5,3.3,3.4,7.2,2.4,10.9l-6.4,23.6
	c-0.5,2-2,3.5-3.3,4.9c-0.4,0.4-0.8,0.9-1.2,1.3v32.6C192.4,189.6,188,193.9,182.6,193.9z M175,155.5h1.2c1.8,0,3.2,1.4,3.2,3.2
	v25.5c0,1.8,1.5,3.3,3.3,3.3s3.3-1.5,3.3-3.3v-33.5c0-0.5,0.1-1,0.3-1.4c0.6-1.3,1.6-2.3,2.6-3.3c0.6-0.6,1.6-1.7,1.7-2.1l6.4-23.6
	c0.5-1.8,0.1-3.6-1.3-5.3c-2.1-2.7-6.1-4.7-9.7-4.7h-21c-3.7,0-7.7,2-9.8,4.8c-1.3,1.7-1.7,3.4-1.2,5.2l6.9,23.6
	c0.1,0.2,0.9,0.9,1.3,1.4c1,1,2,1.9,2.6,3.2c0.2,0.4,0.3,0.9,0.3,1.3v34.5c0,1.8,1.5,3.3,3.3,3.3s3.3-1.5,3.3-3.3v-25.5
	C171.8,156.9,173.2,155.5,175,155.5z M175.5,100c-10.4,0-18.9-8.5-18.9-18.9c0-10.5,8.5-19,18.9-19c10.5,0,19,8.5,19,19
	C194.5,91.5,186,100,175.5,100z M175.5,68.5c-6.9,0-12.5,5.6-12.5,12.6c0,6.9,5.6,12.5,12.5,12.5s12.6-5.6,12.6-12.5
	C188.1,74.1,182.4,68.5,175.5,68.5z M130,214.1c-1.8,0-3.2-1.4-3.2-3.2V45.1c0-1.8,1.4-3.2,3.2-3.2s3.2,1.4,3.2,3.2v165.7
	C133.2,212.6,131.8,214.1,130,214.1z"/>
<path class="st1" d="M14.2,123.3c1.3-1.3,2.7-1.8,4.7-2.1l218.4,0.2c3.5,0,6.6,3.1,6.6,6.6s-3.1,6.6-6.6,6.6H19.2
	c-3.5,0-6.6-3.1-6.6-6.6C12.4,126.2,13,124.5,14.2,123.3z"/>
<path class="st1" d="M155.5,201.5l77.2-77.2c2.7-2.7,6.8-2.7,9.2,0c2.7,2.7,2.7,6.8,0,9.2L164.7,211c-2.7,2.7-6.8,2.7-9.2,0
	C152.9,208.3,152.9,204.2,155.5,201.5z"/>
<path class="st1" d="M155.5,45c2.7-2.7,6.8-2.7,9.2,0l77.2,77.2c2.7,2.7,2.7,6.8,0,9.2c-2.7,2.7-6.8,2.7-9.2,0l-77.2-77.2
	C152.9,51.6,152.9,47.4,155.5,45z"/>
</svg>
